<?xml version="1.0" encoding="UTF-8" standalone="no"?> <svg id="Layer_1" data-name="Layer 1" xmlns="http://www.w3.org/2000/svg" viewBox="0 0 128 128"><defs><style>.cls-1{fill:#2d3e50;}.cls-2{fill:#1d75b8;}</style></defs><title>a</title><path class="cls-1" d="M125.7113,60.90346a60.99875,60.99875,0,0,0-1.47616-10.11226,62.373,62.373,0,0,0-3.12544-9.71428,63.51087,63.51087,0,0,0-4.6841-9.04121l-5.82605,3.56555a56.565,56.565,0,0,1,3.948,8.12021,55.17234,55.17234,0,0,1,2.5387,8.64062,53.55784,53.55784,0,0,1,1.07092,8.92627c.06773,1.498.04714,2.99956-.0246,4.49588l-.04323,1.12258-.10153,1.11832-.09986,1.11779c-.01789.18609-.02982.37284-.0524.55838l-.079.55529a51.68028,51.68028,0,0,1-1.86241,8.74963A53.71422,53.71422,0,0,1,112.63,87.31171a55.51733,55.51733,0,0,1-4.60625,7.62482,51.87739,51.87739,0,0,1-5.77476,6.76124,53.18826,53.18826,0,0,1-57.12507,11.78754c-1.26684-.50327-2.51115-1.06-3.73318-1.661l3.55364-6.15508-24.58536,0,12.29267,21.29155,3.4141-5.91338c1.7389.8285,3.51234,1.58242,5.31875,2.247a63.71461,63.71461,0,0,0,10.09294,2.783,63.75564,63.75564,0,0,0,30.92231-1.89715,64.35022,64.35022,0,0,0,9.59127-3.98635l1.14835-.60549c.38323-.2008.76658-.40115,1.13553-.62753.74447-.44069,1.49188-.876,2.23106-1.32375l2.16631-1.42466c.71626-.48271,1.40238-1.00914,2.10338-1.51281a64.35879,64.35879,0,0,0,7.744-6.84743,60.52914,60.52914,0,0,0,6.49908-8.0134,63.93288,63.93288,0,0,0,5.09844-8.95113,61.89094,61.89094,0,0,0,3.51861-9.66471,59.60325,59.60325,0,0,0,1.8796-10.08892l.07248-.6371c.02026-.21271.02971-.42639.045-.63951l.08241-1.27923.08074-1.27872.01909-1.28051C125.85251,64.31233,125.83021,62.60569,125.7113,60.90346Z"/><path class="cls-1" d="M9.64554,61.34944c.01174-.18641.03291-.37217.04878-.55825l.10188-1.11571.10025-1.11518.15759-1.10815.157-1.10756.07983-.5533.10718-.54878c.14535-.73106.2779-1.46426.43053-2.19286l.53473-2.16834c.07963-.3636.20124-.71622.30483-1.07337l.32063-1.06858A55.69412,55.69412,0,0,1,15.322,40.48458,54.93591,54.93591,0,0,1,25.78148,26.213a55.62222,55.62222,0,0,1,6.81724-5.63651,51.17962,51.17962,0,0,1,7.61788-4.44376,55.09538,55.09538,0,0,1,8.22118-3.11838L50.56,12.44539l2.14689-.46293c.17905-.03737.35688-.08047.53682-.11335l.542-.08745,1.08327-.17632c.36145-.05582.72051-.12579,1.08346-.17092l1.09083-.1207c1.45015-.19246,2.91442-.252,4.37325-.32963l2.19381-.02218c.36535-.01225.73089.01314,1.09616.02137l1.09557.03562a55.12289,55.12289,0,0,1,8.66034,1.14734,53.75464,53.75464,0,0,1,8.324,2.54747q1.68513.67461,3.31726,1.46778l-3.43136,5.9433h24.58535L94.965.83323l-3.54317,6.137q-2.40522-1.12355-4.896-2.0439A64.09771,64.09771,0,0,0,76.48,2.15477a65.19519,65.19519,0,0,0-10.335-1.078l-1.29731-.00746c-.43234.00184-.86458-.01279-1.29667.01088L60.95977,1.179c-1.72363.13413-3.44869.26085-5.15746.53122l-1.28338.181c-.42686.06588-.84991.15731-1.2748.23521l-1.27274.24445-.636.12293c-.21118.04485-.42025.10011-.63042.14978l-2.51592.61807-2.48231.73865A64.3692,64.3692,0,0,0,36.152,7.93066a60.18685,60.18685,0,0,0-8.75411,5.43679,64.37668,64.37668,0,0,0-7.73645,6.76872A63.29381,63.29381,0,0,0,8.04312,36.942a63.64772,63.64772,0,0,0-3.56451,9.58059l-.33313,1.23371c-.10714.41212-.23172.81965-.31368,1.238L3.29011,51.49c-.15255.837-.28266,1.67819-.4233,2.51669l-.10319.62922-.075.6332L2.544,56.53572,2.402,57.802,2.3208,59.07322l-.07958,1.27071c-.01191.21179-.029.42335-.03644.63524l-.00854.63617L2.1683,64.15848c.03119.84719.036,1.69455.09167,2.54031A61.18893,61.18893,0,0,0,6.65149,86.4345a63.4001,63.4001,0,0,0,4.56078,9.02535l5.58921-3.33194a54.32382,54.32382,0,0,1-6.27717-16.81,55.93061,55.93061,0,0,1-.96955-8.92182c-.02952-.74756-.01018-1.49692-.01922-2.24458l.08829-2.242Z"/><path class="cls-2" d="M81.50541,56.90351H52.69269V46.852a11.3073,11.3073,0,0,1,22.61461,0,2.51562,2.51562,0,0,0,5.03125,0,16.33776,16.33776,0,1,0-32.67552,0V56.90351H40.0886V91.07974a6.4067,6.4067,0,0,0,6.40755,6.406H87.9114V63.30949A6.40536,6.40536,0,0,0,81.50541,56.90351ZM66.6227,78.71029V86.0296a2.62192,2.62192,0,1,1-5.24384,0V78.71029a6.74927,6.74927,0,1,1,5.24384,0Z"/></svg>